<?xml version="1.0" encoding="UTF-8"?>
<svg version="1.1" xmlns="http://www.w3.org/2000/svg" width="320" height="180">
<path d="M0 0 C105.6 0 211.2 0 320 0 C320 59.4 320 118.8 320 180 C214.4 180 108.8 180 0 180 C0 120.6 0 61.2 0 0 Z " fill="#11100F" transform="translate(0,0)"/>
<path d="M0 0 C1.14966499 -0.00810448 1.14966499 -0.00810448 2.32255554 -0.01637268 C4.84613107 -0.02884102 7.36856172 -0.01238558 9.89208984 0.00561523 C11.64895691 0.00546023 13.40582432 0.00397107 15.16268921 0.00120544 C18.83957079 -0.00017758 22.51606182 0.01236575 26.19287109 0.03515625 C30.90869065 0.0635826 35.62386348 0.06079102 40.33973122 0.04806614 C43.96511372 0.04111711 47.59034632 0.04888862 51.21570969 0.06132317 C52.95486247 0.06584229 54.69403132 0.06617045 56.43318558 0.06225777 C58.86074182 0.05935204 61.28740081 0.07581944 63.71484375 0.09765625 C64.79494469 0.09090378 64.79494469 0.09090378 65.89686584 0.08401489 C68.81214316 0.12765763 70.76969045 0.18172047 73.19906616 1.87779236 C74.22802734 3.50170898 74.22802734 3.50170898 74.20458984 5.88842773 C72.95215838 9.23993432 71.21111195 10.87553169 68.60302734 13.31420898 C64.90298958 16.86750304 61.42295556 20.45707336 58.09130859 24.35327148 C54.92792198 28.00078225 51.63542826 31.53257077 48.36474609 35.08374023 C46.12842185 37.50453358 46.12842185 37.50453358 44.22802734 40.50170898 C42.24118042 40.86247253 42.24118042 40.86247253 39.77832031 40.84228516 C38.39711502 40.84194527 38.39711502 40.84194527 36.98800659 40.84159851 C35.99213531 40.82611465 34.99626404 40.8106308 33.97021484 40.79467773 C32.95202667 40.79043289 31.9338385 40.78618805 30.88479614 40.78181458 C27.62394061 40.76498478 24.36369693 40.72732444 21.10302734 40.68920898 C18.896005 40.67416772 16.688973 40.66047835 14.48193359 40.64819336 C9.06375511 40.61506729 3.64593493 40.56482551 -1.77197266 40.50170898 C-1.69342041 41.70069824 -1.61486816 42.8996875 -1.53393555 44.13500977 C-1.25937696 48.64725098 -1.0892158 53.15878698 -0.94799805 57.67700195 C-0.87323034 59.61967595 -0.77135232 61.56152512 -0.64038086 63.5012207 C0.47481301 80.46091418 0.47481301 80.46091418 -5.02612305 86.85888672 C-8.13776446 89.95410041 -11.47988002 92.66092004 -15.03192139 95.23306274 C-17.17453493 96.79521132 -19.12998652 98.52460088 -21.08447266 100.31420898 C-21.67228516 100.81952148 -22.26009766 101.32483398 -22.86572266 101.84545898 C-26.15241943 104.70111356 -29.35599878 107.64977677 -32.57275391 110.58374023 C-34.77197266 112.50170898 -34.77197266 112.50170898 -37.77197266 114.50170898 C-40.73273557 114.14282863 -41.61855286 113.65512878 -43.77197266 111.50170898 C-44.0171642 109.09312703 -44.13856339 106.79471173 -44.17358398 104.38085938 C-44.19154526 103.64721161 -44.20950653 102.91356384 -44.22801208 102.15768433 C-44.28287264 99.7216309 -44.32075037 97.28580585 -44.35400391 94.84936523 C-44.36589941 94.01542173 -44.37779491 93.18147823 -44.39005089 92.32226372 C-44.4494238 87.90060481 -44.49321748 83.47905156 -44.52709961 79.05712891 C-44.55814845 75.41006511 -44.62060882 71.76567955 -44.71166992 68.11962891 C-44.82177802 63.70787491 -44.87676861 59.29856162 -44.89349937 54.88549614 C-44.9086857 53.21128178 -44.94252466 51.5371199 -44.9961338 49.86369514 C-45.43271634 35.42708848 -45.43271634 35.42708848 -39.94870281 29.52693081 C-37.66924753 27.3632761 -35.262436 25.41626503 -32.77197266 23.50170898 C-31.45368756 22.36253618 -30.13963332 21.21839524 -28.83447266 20.06420898 C-28.21056641 19.53311523 -27.58666016 19.00202148 -26.94384766 18.45483398 C-23.51135646 15.36806133 -20.29477783 12.06645099 -17.07104492 8.76367188 C-11.47128301 3.0669928 -8.20355124 -0.11076759 0 0 Z " fill="#E4DE06" transform="translate(66.77197265625,32.498291015625)"/>
<path d="M0 0 C12 0 12 0 15.5859375 3.4375 C16.55820445 4.93147117 17.48759443 6.45411377 18.375 8 C19.31913903 9.50073889 20.26444919 11.00074165 21.2109375 12.5 C21.66049805 13.24121094 22.11005859 13.98242188 22.57324219 14.74609375 C24.83727944 18.32268375 27.40326106 21.66052321 30 25 C33.52404261 21.72011738 36.19660603 18.11205722 38.9375 14.1875 C40.20339779 12.39332956 41.46840011 10.60058629 42.76123047 8.82568359 C44.04544784 7.01860725 44.04544784 7.01860725 45.00830078 4.99072266 C46.06640625 3.05078125 46.06640625 3.05078125 49 0 C52.96 0 56.92 0 61 0 C61 11.55 61 23.1 61 35 C57.7 35 54.4 35 51 35 C50.67 28.4 50.34 21.8 50 15 C49.08476562 16.27617188 48.16953125 17.55234375 47.2265625 18.8671875 C46.0261381 20.53652768 44.82561199 22.20579473 43.625 23.875 C43.02171875 24.71675781 42.4184375 25.55851562 41.796875 26.42578125 C40.92675781 27.63427734 40.92675781 27.63427734 40.0390625 28.8671875 C39.23782959 29.98262939 39.23782959 29.98262939 38.42041016 31.12060547 C35.60107973 34.85096051 35.60107973 34.85096051 32.88305664 35.52490234 C28.82410096 35.82272846 26.11048716 35.922969 22.88623047 33.24316406 C20.89533271 30.78990074 19.15145536 28.27886636 17.4375 25.625 C16.82326172 24.73554687 16.20902344 23.84609375 15.57617188 22.9296875 C11.47106186 16.94212372 11.47106186 16.94212372 10 14 C9.67 20.93 9.34 27.86 9 35 C6.03 35 3.06 35 0 35 C0 23.45 0 11.9 0 0 Z " fill="#E8E306" transform="translate(140,93)"/>
<path d="M0 0 C20.13 0 40.26 0 61 0 C59.30741897 3.38516206 58.53351012 4.66287836 55.9375 7.0625 C51.86381506 10.99896608 48.36574486 15.33142928 44.8203125 19.7421875 C43 22 43 22 42 23 C38.89748799 23.08874135 35.8173188 23.11518455 32.71484375 23.09765625 C31.78402481 23.0962413 30.85320587 23.09482635 29.8941803 23.09336853 C26.90858809 23.08775172 23.92306971 23.0751964 20.9375 23.0625 C18.91862087 23.05748716 16.89974057 23.05292388 14.88085938 23.04882812 C9.92052129 23.03862587 4.9603437 23.01905382 0 23 C0 15.41 0 7.82 0 0 Z " fill="#13120F" transform="translate(65,42)"/>
<path d="M0 0 C7.92 0 15.84 0 24 0 C24.32473111 5.32713651 24.60162271 10.6192602 24.76904297 15.94848633 C24.83882663 17.75240998 24.93391342 19.55555982 25.05615234 21.35668945 C26.09690536 37.10354494 26.09690536 37.10354494 20.98828125 43.01879883 C18.09342 45.88249744 14.98073155 48.37587603 11.68334961 50.75898743 C9.38792603 52.45123811 7.32564073 54.36064058 5.25 56.3125 C2.2566586 59 2.2566586 59 0 59 C0 39.53 0 20.06 0 0 Z " fill="#11100F" transform="translate(32,73)"/>
<path d="M0 0 C1.69286133 -0.00386719 1.69286133 -0.00386719 3.41992188 -0.0078125 C4.59490234 -0.00007813 5.76988281 0.00765625 6.98046875 0.015625 C8.14384766 0.00789063 9.30722656 0.00015625 10.50585938 -0.0078125 C16.43715578 0.00569074 21.58140667 0.2104226 27.16796875 2.265625 C27.29296875 8.015625 27.29296875 8.015625 26.16796875 10.265625 C25.57516113 10.1941626 24.98235352 10.1227002 24.37158203 10.04907227 C17.90362753 9.32824222 11.54666292 9.14375139 5.04296875 9.203125 C3.60824219 9.20989258 3.60824219 9.20989258 2.14453125 9.21679688 C-0.18105883 9.22842483 -2.50650885 9.24476398 -4.83203125 9.265625 C-4.83203125 10.255625 -4.83203125 11.245625 -4.83203125 12.265625 C-4.10612793 12.31050049 -3.38022461 12.35537598 -2.63232422 12.40161133 C0.67711823 12.61376862 3.98488666 12.84575419 7.29296875 13.078125 C8.43507812 13.14837891 9.5771875 13.21863281 10.75390625 13.29101562 C17.52480365 13.78308666 22.50252291 14.45441442 28.01171875 18.6796875 C29.96175934 21.35440533 29.69678046 23.83520687 29.58203125 27.04296875 C28.90132172 30.69696615 27.11617851 32.15060495 24.16796875 34.265625 C13.2199528 38.70400985 -0.45077173 36.33083368 -11.83203125 34.265625 C-12.49203125 33.935625 -13.15203125 33.605625 -13.83203125 33.265625 C-13.50203125 30.625625 -13.17203125 27.985625 -12.83203125 25.265625 C-12.24502441 25.3370874 -11.65801758 25.4085498 -11.05322266 25.48217773 C-4.41431014 26.22611538 2.11716406 26.38605922 8.79296875 26.328125 C9.79714844 26.32361328 10.80132812 26.31910156 11.8359375 26.31445312 C14.28001346 26.30281467 16.72395695 26.2864674 19.16796875 26.265625 C19.16796875 25.275625 19.16796875 24.285625 19.16796875 23.265625 C18.43682861 23.2155127 17.70568848 23.16540039 16.95239258 23.11376953 C13.62776705 22.88113806 10.30417616 22.63601166 6.98046875 22.390625 C5.25473633 22.27267578 5.25473633 22.27267578 3.49414062 22.15234375 C2.38232422 22.06855469 1.27050781 21.98476562 0.125 21.8984375 C-1.4067688 21.78846436 -1.4067688 21.78846436 -2.96948242 21.67626953 C-7.22871389 21.06526507 -10.00948172 20.04371239 -13.14453125 17.078125 C-15.32552071 13.44314257 -15.50299761 11.44052677 -14.83203125 7.265625 C-10.50597818 1.85805867 -6.81853544 0.01502471 0 0 Z " fill="#E6E006" transform="translate(219.83203125,92.734375)"/>
<path d="M0 0 C0.9914502 -0.00064453 1.98290039 -0.00128906 3.00439453 -0.00195312 C9.66742081 0.04621069 16.0331038 0.45474312 22.5 2.1875 C22.17 4.8275 21.84 7.4675 21.5 10.1875 C20.93796875 10.1153125 20.3759375 10.043125 19.796875 9.96875 C10.0481218 8.89220057 0.29248016 9.10118039 -9.5 9.1875 C-9.5 10.1775 -9.5 11.1675 -9.5 12.1875 C-8.74380371 12.22713867 -7.98760742 12.26677734 -7.20849609 12.30761719 C-3.76266314 12.49884692 -0.31913621 12.71789514 3.125 12.9375 C4.31480469 12.999375 5.50460937 13.06125 6.73046875 13.125 C17.80034407 13.86711455 17.80034407 13.86711455 22.5 18.1875 C24.36127605 21.91005211 24.05765582 26.13301415 23.5 30.1875 C20.56607129 33.97321446 16.83505733 35.03067353 12.26953125 35.87109375 C1.20455433 37.13521664 -8.79435443 35.9587611 -19.5 33.1875 C-19.17 30.5475 -18.84 27.9075 -18.5 25.1875 C-17.91879395 25.25316162 -17.33758789 25.31882324 -16.73876953 25.38647461 C-9.95553135 26.11339317 -3.19041264 26.48553424 3.625 26.75 C5.2028125 26.81477539 5.2028125 26.81477539 6.8125 26.88085938 C9.37490627 26.98568509 11.93738799 27.08785355 14.5 27.1875 C14.005 25.2075 14.005 25.2075 13.5 23.1875 C12.36570557 23.12804199 12.36570557 23.12804199 11.20849609 23.06738281 C7.76266314 22.87615308 4.31913621 22.65710486 0.875 22.4375 C-0.90970703 22.3446875 -0.90970703 22.3446875 -2.73046875 22.25 C-13.80034407 21.50788545 -13.80034407 21.50788545 -18.5 17.1875 C-20.24604774 13.69540452 -20.2087477 9.98717517 -19.5 6.1875 C-14.53264263 -0.52472025 -7.50176845 -0.00493456 0 0 Z " fill="#E6E106" transform="translate(272.5,92.8125)"/>
<path d="M0 0 C0.93545654 0.00386719 1.87091309 0.00773437 2.8347168 0.01171875 C9.33488724 0.09304854 15.56297843 0.59438778 21.875 2.25 C22.98344919 5.57534757 22.71954356 7.87182575 21.875 11.25 C21.30136719 11.1778125 20.72773438 11.105625 20.13671875 11.03125 C13.73642031 10.33197612 7.37024759 10.11150674 0.9375 10.0625 C0.10887451 10.04960938 -0.71975098 10.03671875 -1.57348633 10.0234375 C-2.75720825 10.02150391 -2.75720825 10.02150391 -3.96484375 10.01953125 C-4.66988037 10.01542236 -5.37491699 10.01131348 -6.10131836 10.00708008 C-8.49297484 10.29417119 -10.07999239 10.98997838 -12.125 12.25 C-13.65346661 15.30693322 -13.35742445 17.87984547 -13.125 21.25 C-12.08557155 23.69245747 -12.08557155 23.69245747 -10.125 25.25 C0.29373276 27.9485054 11.43171915 25.84787904 21.875 24.25 C22.37 28.705 22.37 28.705 22.875 33.25 C15.73415375 35.12093153 9.11684228 35.58537839 1.75 35.5625 C0.18185547 35.58666992 0.18185547 35.58666992 -1.41796875 35.61132812 C-8.96299363 35.61609742 -13.97201518 34.84245419 -19.9375 29.9375 C-23.90301941 25.06557616 -24.6679618 20.43976449 -24.125 14.25 C-22.08023737 7.66132042 -19.07259623 4.3957578 -13.0625 1.12890625 C-8.71355316 -0.1723079 -4.51459257 -0.04449832 0 0 Z " fill="#E8E206" transform="translate(113.125,92.75)"/>
<path d="M0 0 C0 4.95 0 9.9 0 15 C-5.28 15 -10.56 15 -16 15 C-3.8125 0 -3.8125 0 0 0 Z " fill="#1E1D0F" transform="translate(56,50)"/>
</svg>
